#N canvas 78 217 340 321 12;
#X obj 20 81 netreceive;
#X msg 20 35 listen 3000;
#X msg 31 58 listen -1;
#X obj 20 12 loadbang;
#X obj 20 104 oscparse;
#X obj 20 127 print;
#X connect 0 0 4 0;
#X connect 1 0 0 0;
#X connect 2 0 0 0;
#X connect 3 0 1 0;
#X connect 4 0 5 0;
